<?xml version="1.0" encoding="UTF-8" standalone="no"?><!-- Generator: Gravit.io --><svg xmlns="http://www.w3.org/2000/svg" xmlns:xlink="http://www.w3.org/1999/xlink" style="isolation:isolate" viewBox="0 0 6120 3600" width="6120pt" height="3600pt"><defs><clipPath id="_clipPath_9vxZgkaaSVwaFhpmwlkhymmxG89PZ2Uo"><rect width="6120" height="3600"/></clipPath></defs><g clip-path="url(#_clipPath_9vxZgkaaSVwaFhpmwlkhymmxG89PZ2Uo)"><path d=" M 279.253 3488.262 L 5894.585 3488.262 Q 6210.49 1885.844 5535.185 1450.902 Q 4859.88 1015.96 4207.753 1502.408 Q 3891.848 111.738 2668.573 111.738 Q 1445.299 111.738 1313.957 1993.435 Q 588.291 1828.615 279.253 2217.773 Q -29.785 2606.932 279.253 3488.262 Z " fill="rgb(255,255,255)"/><path d=" M 2936.157 2489.296 C 2866.397 2474.04 2787.382 2477.782 2709.415 2504.263 C 2518.342 2569.159 2405.451 2746.202 2457.474 2899.373 C 2509.497 3052.545 2706.861 3124.214 2897.933 3059.318 C 3047.482 3008.525 3149.137 2889.033 3161.315 2766.056 L 3162.546 2766.056 L 3162.43 2748.876 C 3162.617 2742.735 3162.578 2736.594 3162.306 2730.459 L 3155.02 1649.235 Q 3425.175 1683.298 3527.367 2054.008 C 3566.656 2220.24 3498.737 2309.128 3538.135 2330.905 C 3577.533 2352.682 3661.375 2151.274 3672.545 2036.895 C 3689.403 1864.283 3634.497 1496.502 3255.41 1349.812 Q 3163.248 1314.444 3162.546 1204.77 Q 3145.53 1093.791 3052.132 1093.791 Q 2958.734 1093.791 2936.157 1204.77 L 2936.157 2489.296 Z " fill-rule="evenodd" fill="rgb(25,50,60)"/></g></svg>