<?xml version="1.0" encoding="utf-8"?>
<svg viewBox="0 0 3200 600" style="isolation:isolate" xmlns="http://www.w3.org/2000/svg">
  <defs>
    <clipPath id="_clipPath_qcGVex1fQS0YvdDudDP5Bym0pCPha0Jl">
      <rect width="3200" height="600"/>
    </clipPath>
  </defs>
  <g clip-path="url(#_clipPath_qcGVex1fQS0YvdDudDP5Bym0pCPha0Jl)">
    <path d=" M 1237 110.5 L 1237 110.5 Q 1241.2 98.5 1250.5 92.5 L 1250.5 92.5 L 1250.5 92.5 Q 1259.8 86.5 1271.2 86.5 L 1271.2 86.5 L 1271.2 86.5 Q 1285.6 86.5 1296.1 95.5 L 1296.1 95.5 L 1296.1 95.5 Q 1306.6 104.5 1306.6 119.5 L 1306.6 119.5 L 1306.6 119.5 Q 1306.6 124.9 1303.6 135.1 L 1303.6 135.1 L 1174.6 492.1 L 1174.6 492.1 Q 1169.8 504.1 1158.7 510.7 L 1158.7 510.7 L 1158.7 510.7 Q 1147.6 517.3 1134.4 517.3 L 1134.4 517.3 L 1134.4 517.3 Q 1121.2 517.3 1109.8 510.7 L 1109.8 510.7 L 1109.8 510.7 Q 1098.4 504.1 1094.2 492.1 L 1094.2 492.1 L 994.6 209.5 L 893.2 492.1 L 893.2 492.1 Q 888.4 504.1 877.3 510.7 L 877.3 510.7 L 877.3 510.7 Q 866.2 517.3 853 517.3 L 853 517.3 L 853 517.3 Q 839.8 517.3 828.7 510.7 L 828.7 510.7 L 828.7 510.7 Q 817.6 504.1 813.4 492.1 L 813.4 492.1 L 684.4 135.1 L 684.4 135.1 Q 681.4 126.1 681.4 119.5 L 681.4 119.5 L 681.4 119.5 Q 681.4 104.5 692.5 95.5 L 692.5 95.5 L 692.5 95.5 Q 703.6 86.5 718.6 86.5 L 718.6 86.5 L 718.6 86.5 Q 730.6 86.5 740.2 92.5 L 740.2 92.5 L 740.2 92.5 Q 749.8 98.5 754 110.5 L 754 110.5 L 856 403.9 L 961 112.3 L 961 112.3 Q 965.2 100.3 974.8 93.4 L 974.8 93.4 L 974.8 93.4 Q 984.4 86.5 995.8 86.5 L 995.8 86.5 L 995.8 86.5 Q 1007.2 86.5 1017.1 93.4 L 1017.1 93.4 L 1017.1 93.4 Q 1027 100.3 1031.2 112.9 L 1031.2 112.9 L 1133.2 407.5 L 1237 110.5 L 1237 110.5 Z  M 1458.4 212.5 L 1458.4 212.5 Q 1519.6 212.5 1549.3 242.8 L 1549.3 242.8 L 1549.3 242.8 Q 1579 273.1 1579 334.9 L 1579 334.9 L 1579 481.3 L 1579 481.3 Q 1579 497.5 1569.4 506.8 L 1569.4 506.8 L 1569.4 506.8 Q 1559.8 516.1 1543 516.1 L 1543 516.1 L 1543 516.1 Q 1527.4 516.1 1517.5 506.5 L 1517.5 506.5 L 1517.5 506.5 Q 1507.6 496.9 1507.6 481.3 L 1507.6 481.3 L 1507.6 468.1 L 1507.6 468.1 Q 1497.4 491.5 1475.5 504.7 L 1475.5 504.7 L 1475.5 504.7 Q 1453.6 517.9 1424.8 517.9 L 1424.8 517.9 L 1424.8 517.9 Q 1395.4 517.9 1371.4 505.9 L 1371.4 505.9 L 1371.4 505.9 Q 1347.4 493.9 1333.6 472.9 L 1333.6 472.9 L 1333.6 472.9 Q 1319.8 451.9 1319.8 426.1 L 1319.8 426.1 L 1319.8 426.1 Q 1319.8 393.7 1336.3 375.1 L 1336.3 375.1 L 1336.3 375.1 Q 1352.8 356.5 1390 348.1 L 1390 348.1 L 1390 348.1 Q 1427.2 339.7 1492.6 339.7 L 1492.6 339.7 L 1507.6 339.7 L 1507.6 325.9 L 1507.6 325.9 Q 1507.6 296.5 1495 283 L 1495 283 L 1495 283 Q 1482.4 269.5 1454.2 269.5 L 1454.2 269.5 L 1454.2 269.5 Q 1436.8 269.5 1418.8 274.6 L 1418.8 274.6 L 1418.8 274.6 Q 1400.8 279.7 1376.2 289.3 L 1376.2 289.3 L 1376.2 289.3 Q 1360.6 297.1 1353.4 297.1 L 1353.4 297.1 L 1353.4 297.1 Q 1342.6 297.1 1335.7 289.3 L 1335.7 289.3 L 1335.7 289.3 Q 1328.8 281.5 1328.8 268.9 L 1328.8 268.9 L 1328.8 268.9 Q 1328.8 258.7 1333.9 251.2 L 1333.9 251.2 L 1333.9 251.2 Q 1339 243.7 1351 237.1 L 1351 237.1 L 1351 237.1 Q 1372 225.7 1401.1 219.1 L 1401.1 219.1 L 1401.1 219.1 Q 1430.2 212.5 1458.4 212.5 L 1458.4 212.5 L 1458.4 212.5 Z  M 1439.8 463.9 L 1439.8 463.9 Q 1469.8 463.9 1488.7 443.8 L 1488.7 443.8 L 1488.7 443.8 Q 1507.6 423.7 1507.6 391.9 L 1507.6 391.9 L 1507.6 379.3 L 1496.8 379.3 L 1496.8 379.3 Q 1456.6 379.3 1434.4 382.9 L 1434.4 382.9 L 1434.4 382.9 Q 1412.2 386.5 1402.6 395.5 L 1402.6 395.5 L 1402.6 395.5 Q 1393 404.5 1393 420.1 L 1393 420.1 L 1393 420.1 Q 1393 439.3 1406.5 451.6 L 1406.5 451.6 L 1406.5 451.6 Q 1420 463.9 1439.8 463.9 L 1439.8 463.9 L 1439.8 463.9 Z  M 1859.8 235.3 L 1859.8 235.3 Q 1864.6 224.5 1872.7 219.1 L 1872.7 219.1 L 1872.7 219.1 Q 1880.8 213.7 1890.4 213.7 L 1890.4 213.7 L 1890.4 213.7 Q 1904.2 213.7 1915.3 223 L 1915.3 223 L 1915.3 223 Q 1926.4 232.3 1926.4 246.1 L 1926.4 246.1 L 1926.4 246.1 Q 1926.4 253.3 1922.8 260.5 L 1922.8 260.5 L 1811.8 492.7 L 1811.8 492.7 Q 1806.4 504.1 1796.5 510.1 L 1796.5 510.1 L 1796.5 510.1 Q 1786.6 516.1 1774.6 516.1 L 1774.6 516.1 L 1774.6 516.1 Q 1763.2 516.1 1752.7 510.1 L 1752.7 510.1 L 1752.7 510.1 Q 1742.2 504.1 1736.8 492.7 L 1736.8 492.7 L 1625.2 260.5 L 1625.2 260.5 Q 1622.2 254.5 1622.2 246.7 L 1622.2 246.7 L 1622.2 246.7 Q 1622.2 232.9 1633.9 223.3 L 1633.9 223.3 L 1633.9 223.3 Q 1645.6 213.7 1660.6 213.7 L 1660.6 213.7 L 1660.6 213.7 Q 1682.2 213.7 1692.4 234.7 L 1692.4 234.7 L 1776.4 420.1 L 1859.8 235.3 L 1859.8 235.3 Z  M 2123.8 518.5 L 2123.8 518.5 Q 2077.6 518.5 2036.5 506.2 L 2036.5 506.2 L 2036.5 506.2 Q 1995.4 493.9 1969.6 472.9 L 1969.6 472.9 L 1969.6 472.9 Q 1955.8 462.7 1955.8 444.1 L 1955.8 444.1 L 1955.8 444.1 Q 1955.8 431.5 1963.3 422.2 L 1963.3 422.2 L 1963.3 422.2 Q 1970.8 412.9 1981 412.9 L 1981 412.9 L 1981 412.9 Q 1991.8 412.9 2005.6 421.3 L 2005.6 421.3 L 2005.6 421.3 Q 2031.4 439.9 2059.6 448.3 L 2059.6 448.3 L 2059.6 448.3 Q 2087.8 456.7 2122 456.7 L 2122 456.7 L 2122 456.7 Q 2165.8 456.7 2189.2 441.4 L 2189.2 441.4 L 2189.2 441.4 Q 2212.6 426.1 2212.6 396.7 L 2212.6 396.7 L 2212.6 396.7 Q 2212.6 373.9 2190.7 361.6 L 2190.7 361.6 L 2190.7 361.6 Q 2168.8 349.3 2117.8 337.9 L 2117.8 337.9 L 2117.8 337.9 Q 2065 326.5 2032 311.5 L 2032 311.5 L 2032 311.5 Q 1999 296.5 1982.2 273.1 L 1982.2 273.1 L 1982.2 273.1 Q 1965.4 249.7 1965.4 213.7 L 1965.4 213.7 L 1965.4 213.7 Q 1965.4 176.5 1986.4 147.1 L 1986.4 147.1 L 1986.4 147.1 Q 2007.4 117.7 2044.9 101.2 L 2044.9 101.2 L 2044.9 101.2 Q 2082.4 84.7 2129.2 84.7 L 2129.2 84.7 L 2129.2 84.7 Q 2215 84.7 2269 130.3 L 2269 130.3 L 2269 130.3 Q 2276.8 136.9 2280.1 143.2 L 2280.1 143.2 L 2280.1 143.2 Q 2283.4 149.5 2283.4 159.1 L 2283.4 159.1 L 2283.4 159.1 Q 2283.4 171.7 2275.9 181 L 2275.9 181 L 2275.9 181 Q 2268.4 190.3 2258.2 190.3 L 2258.2 190.3 L 2258.2 190.3 Q 2252.2 190.3 2247.1 188.5 L 2247.1 188.5 L 2247.1 188.5 Q 2242 186.7 2233.6 181.9 L 2233.6 181.9 L 2233.6 181.9 Q 2209 163.9 2185.9 155.2 L 2185.9 155.2 L 2185.9 155.2 Q 2162.8 146.5 2129.2 146.5 L 2129.2 146.5 L 2129.2 146.5 Q 2088.4 146.5 2064.7 163 L 2064.7 163 L 2064.7 163 Q 2041 179.5 2041 208.9 L 2041 208.9 L 2041 208.9 Q 2041 233.5 2062 246.7 L 2062 246.7 L 2062 246.7 Q 2083 259.9 2133.4 271.3 L 2133.4 271.3 L 2133.4 271.3 Q 2186.8 283.3 2220.1 298 L 2220.1 298 L 2220.1 298 Q 2253.4 312.7 2271.1 335.5 L 2271.1 335.5 L 2271.1 335.5 Q 2288.8 358.3 2288.8 392.5 L 2288.8 392.5 L 2288.8 392.5 Q 2288.8 429.7 2268.1 458.2 L 2268.1 458.2 L 2268.1 458.2 Q 2247.4 486.7 2209.9 502.6 L 2209.9 502.6 L 2209.9 502.6 Q 2172.4 518.5 2123.8 518.5 L 2123.8 518.5 L 2123.8 518.5 Z  M 2585.2 213.7 L 2585.2 213.7 Q 2602.6 213.7 2612.8 223.3 L 2612.8 223.3 L 2612.8 223.3 Q 2623 232.9 2623 249.1 L 2623 249.1 L 2623 481.9 L 2623 481.9 Q 2623 497.5 2612.5 507.1 L 2612.5 507.1 L 2612.5 507.1 Q 2602 516.7 2585.2 516.7 L 2585.2 516.7 L 2585.2 516.7 Q 2569 516.7 2559.4 507.7 L 2559.4 507.7 L 2559.4 507.7 Q 2549.8 498.7 2549.8 483.1 L 2549.8 483.1 L 2549.8 468.1 L 2549.8 468.1 Q 2536 492.1 2512.6 505 L 2512.6 505 L 2512.6 505 Q 2489.2 517.9 2459.8 517.9 L 2459.8 517.9 L 2459.8 517.9 Q 2351.8 517.9 2351.8 396.7 L 2351.8 396.7 L 2351.8 249.1 L 2351.8 249.1 Q 2351.8 232.9 2362 223.3 L 2362 223.3 L 2362 223.3 Q 2372.2 213.7 2389 213.7 L 2389 213.7 L 2389 213.7 Q 2406.4 213.7 2416.6 223.3 L 2416.6 223.3 L 2416.6 223.3 Q 2426.8 232.9 2426.8 249.1 L 2426.8 249.1 L 2426.8 397.3 L 2426.8 397.3 Q 2426.8 428.5 2439.4 443.5 L 2439.4 443.5 L 2439.4 443.5 Q 2452 458.5 2479 458.5 L 2479 458.5 L 2479 458.5 Q 2510.2 458.5 2529.1 437.8 L 2529.1 437.8 L 2529.1 437.8 Q 2548 417.1 2548 382.9 L 2548 382.9 L 2548 249.1 L 2548 249.1 Q 2548 232.9 2558.2 223.3 L 2558.2 223.3 L 2558.2 223.3 Q 2568.4 213.7 2585.2 213.7 L 2585.2 213.7 L 2585.2 213.7 Z  M 2864.8 213.7 L 2864.8 213.7 Q 2880.4 212.5 2889.4 220.3 L 2889.4 220.3 L 2889.4 220.3 Q 2898.4 228.1 2898.4 243.7 L 2898.4 243.7 L 2898.4 243.7 Q 2898.4 259.9 2890.6 267.7 L 2890.6 267.7 L 2890.6 267.7 Q 2882.8 275.5 2862.4 277.9 L 2862.4 277.9 L 2844.4 279.7 L 2844.4 279.7 Q 2809 283.3 2792.5 303.7 L 2792.5 303.7 L 2792.5 303.7 Q 2776 324.1 2776 354.7 L 2776 354.7 L 2776 480.7 L 2776 480.7 Q 2776 498.1 2765.2 507.4 L 2765.2 507.4 L 2765.2 507.4 Q 2754.4 516.7 2738.2 516.7 L 2738.2 516.7 L 2738.2 516.7 Q 2722 516.7 2711.5 507.4 L 2711.5 507.4 L 2711.5 507.4 Q 2701 498.1 2701 480.7 L 2701 480.7 L 2701 248.5 L 2701 248.5 Q 2701 231.7 2711.5 222.7 L 2711.5 222.7 L 2711.5 222.7 Q 2722 213.7 2737.6 213.7 L 2737.6 213.7 L 2737.6 213.7 Q 2753.2 213.7 2762.8 222.4 L 2762.8 222.4 L 2762.8 222.4 Q 2772.4 231.1 2772.4 247.3 L 2772.4 247.3 L 2772.4 271.3 L 2772.4 271.3 Q 2783.8 244.9 2806.3 230.5 L 2806.3 230.5 L 2806.3 230.5 Q 2828.8 216.1 2856.4 214.3 L 2856.4 214.3 L 2864.8 213.7 L 2864.8 213.7 Z  M 3106 145.9 L 3106 145.9 Q 3078.4 147.7 3065.8 162.7 L 3065.8 162.7 L 3065.8 162.7 Q 3053.2 177.7 3053.2 205.9 L 3053.2 205.9 L 3053.2 219.7 L 3104.2 219.7 L 3104.2 219.7 Q 3137.8 219.7 3137.8 247.9 L 3137.8 247.9 L 3137.8 247.9 Q 3137.8 276.1 3104.2 276.1 L 3104.2 276.1 L 3053.2 276.1 L 3053.2 480.7 L 3053.2 480.7 Q 3053.2 498.1 3042.7 507.1 L 3042.7 507.1 L 3042.7 507.1 Q 3032.2 516.1 3016 516.1 L 3016 516.1 L 3016 516.1 Q 2999.8 516.1 2989 507.1 L 2989 507.1 L 2989 507.1 Q 2978.2 498.1 2978.2 480.7 L 2978.2 480.7 L 2978.2 276.1 L 2948.2 276.1 L 2948.2 276.1 Q 2914.6 276.1 2914.6 247.9 L 2914.6 247.9 L 2914.6 247.9 Q 2914.6 219.7 2948.2 219.7 L 2948.2 219.7 L 2978.2 219.7 L 2978.2 215.5 L 2978.2 215.5 Q 2978.2 159.1 3007.9 127 L 3007.9 127 L 3007.9 127 Q 3037.6 94.9 3091.6 90.7 L 3091.6 90.7 L 3107.2 89.5 L 3107.2 89.5 Q 3131.2 87.7 3141.1 94.6 L 3141.1 94.6 L 3141.1 94.6 Q 3151 101.5 3151 115.9 L 3151 115.9 L 3151 115.9 Q 3151 141.7 3121.6 144.7 L 3121.6 144.7 L 3106 145.9 L 3106 145.9 Z " style="fill: rgb(242, 83, 89);"/>
    <g>
      <path d="M 64.001 417.45 L 70.929 417.45 C 89.143 417.45 103.93 432.237 103.93 450.45 L 103.93 486.25 C 103.93 504.463 89.143 519.25 70.929 519.25 L 64.001 519.25 C 45.787 519.25 31 504.463 31 486.25 L 31 450.45 C 31 432.237 45.787 417.45 64.001 417.45 Z" style="stroke: none; stroke-miterlimit: 10; fill: rgb(242, 83, 89);"/>
      <path d="M 172.211 361.07 L 179.139 361.07 C 197.353 361.07 212.14 375.856 212.14 394.069 L 212.14 486.251 C 212.14 504.464 197.353 519.25 179.139 519.25 L 172.211 519.25 C 153.997 519.25 139.21 504.464 139.21 486.251 L 139.21 394.069 C 139.21 375.856 153.997 361.07 172.211 361.07 Z" style="stroke: none; stroke-miterlimit: 10; fill: rgb(242, 83, 89);"/>
      <path d="M 280.431 181.93 L 287.359 181.93 C 305.573 181.93 320.36 196.717 320.36 214.93 L 320.36 486.25 C 320.36 504.463 305.573 519.25 287.359 519.25 L 280.431 519.25 C 262.217 519.25 247.43 504.463 247.43 486.25 L 247.43 214.93 C 247.43 196.717 262.217 181.93 280.431 181.93 Z" style="stroke: none; stroke-miterlimit: 10; fill: rgb(242, 83, 89);"/>
      <path d="M 605.071 93.25 L 611.999 93.25 C 630.213 93.25 645 108.037 645 126.25 L 645 486.25 C 645 504.463 630.213 519.25 611.999 519.25 L 605.071 519.25 C 586.857 519.25 572.07 504.463 572.07 486.25 L 572.07 126.25 C 572.07 108.037 586.857 93.25 605.071 93.25 Z" style="stroke: none; stroke-miterlimit: 10; fill: rgb(242, 83, 89);"/>
      <path d="M 388.641 361.07 L 395.569 361.07 C 413.783 361.07 428.57 375.856 428.57 394.069 L 428.57 486.251 C 428.57 504.464 413.783 519.25 395.569 519.25 L 388.641 519.25 C 370.427 519.25 355.64 504.464 355.64 486.251 L 355.64 394.069 C 355.64 375.856 370.427 361.07 388.641 361.07 Z" style="stroke: none; stroke-miterlimit: 10; fill: rgb(242, 83, 89);"/>
      <path d="M 496.861 282.76 L 503.789 282.76 C 522.003 282.76 536.79 297.547 536.79 315.76 L 536.79 486.25 C 536.79 504.463 522.003 519.25 503.789 519.25 L 496.861 519.25 C 478.647 519.25 463.86 504.463 463.86 486.25 L 463.86 315.76 C 463.86 297.547 478.647 282.76 496.861 282.76 Z" style="stroke: none; stroke-miterlimit: 10; fill: rgb(242, 83, 89);"/>
    </g>
  </g>
</svg>