<?xml version="1.0" encoding="UTF-8" standalone="no"?><!-- Generator: Gravit.io --><svg xmlns="http://www.w3.org/2000/svg" xmlns:xlink="http://www.w3.org/1999/xlink" style="isolation:isolate" viewBox="0 0 1000 1000" width="1000pt" height="1000pt"><defs><clipPath id="_clipPath_QfVaNnsgY0tYqNAP1d0OjBFHkbAANpgZ"><rect width="1000" height="1000"/></clipPath></defs><g clip-path="url(#_clipPath_QfVaNnsgY0tYqNAP1d0OjBFHkbAANpgZ)"><path d="M 125.135 454.88 L 125.135 454.88 C 149.08 454.88 168.52 474.58 168.52 498.845 L 168.52 857.505 C 168.52 881.77 149.08 901.47 125.135 901.47 L 125.135 901.47 C 101.19 901.47 81.75 881.77 81.75 857.505 L 81.75 498.845 C 81.75 474.58 101.19 454.88 125.135 454.88 Z" style="stroke:none;fill:#19323C;stroke-miterlimit:10;"/><path d="M 874.865 454.88 L 874.865 454.88 C 898.81 454.88 918.25 474.58 918.25 498.845 L 918.25 857.505 C 918.25 881.77 898.81 901.47 874.865 901.47 L 874.865 901.47 C 850.92 901.47 831.48 881.77 831.48 857.505 L 831.48 498.845 C 831.48 474.58 850.92 454.88 874.865 454.88 Z" style="stroke:none;fill:#19323C;stroke-miterlimit:10;"/><path d="M 500 98.53 L 500 98.53 C 523.948 98.53 543.39 118.23 543.39 142.495 L 543.39 626.115 C 543.39 650.38 523.948 670.08 500 670.08 L 500 670.08 C 476.052 670.08 456.61 650.38 456.61 626.115 L 456.61 142.495 C 456.61 118.23 476.052 98.53 500 98.53 Z" style="stroke:none;fill:#19323C;stroke-miterlimit:10;"/><path d="M 530.81 111.11 L 530.81 111.11 C 547.742 128.042 547.559 155.719 530.401 172.877 L 380.687 322.591 C 363.529 339.749 335.852 339.932 318.92 323 L 318.92 323 C 301.988 306.068 302.171 278.391 319.329 261.233 L 469.043 111.519 C 486.201 94.361 513.878 94.178 530.81 111.11 Z" style="stroke:none;fill:#19323C;stroke-miterlimit:10;"/><path d="M 469.19 111.11 L 469.19 111.11 C 452.258 128.042 452.441 155.719 469.599 172.877 L 619.313 322.591 C 636.471 339.749 664.148 339.932 681.08 323 L 681.08 323 C 698.012 306.068 697.829 278.391 680.671 261.233 L 530.957 111.519 C 513.799 94.361 486.122 94.178 469.19 111.11 Z" style="stroke:none;fill:#19323C;stroke-miterlimit:10;"/><path d="M 918.25 858.085 L 918.25 858.085 C 918.25 882.03 898.809 901.47 874.863 901.47 L 125.137 901.47 C 101.191 901.47 81.75 882.03 81.75 858.085 L 81.75 858.085 C 81.75 834.14 101.191 814.7 125.137 814.7 L 874.863 814.7 C 898.809 814.7 918.25 834.14 918.25 858.085 Z" style="stroke:none;fill:#19323C;stroke-miterlimit:10;"/></g></svg>