<?xml version="1.0" standalone="no"?>
<svg xmlns:xlink="http://www.w3.org/1999/xlink" id="wave" style="transform:rotate(180deg); transition: 0.3s" viewBox="0 0 1440 100" version="1.1" xmlns="http://www.w3.org/2000/svg"><defs><linearGradient id="sw-gradient-0" x1="0" x2="0" y1="1" y2="0"><stop stop-color="rgba(39, 100, 110, 1)" offset="0%"/><stop stop-color="rgba(25, 50, 60, 1)" offset="100%"/></linearGradient></defs><path style="transform:translate(0, 0px); opacity:1" fill="url(#sw-gradient-0)" d="M0,10L40,10C80,10,160,10,240,20C320,30,400,50,480,63.3C560,77,640,83,720,71.7C800,60,880,30,960,26.7C1040,23,1120,47,1200,46.7C1280,47,1360,23,1440,18.3C1520,13,1600,27,1680,35C1760,43,1840,47,1920,43.3C2000,40,2080,30,2160,25C2240,20,2320,20,2400,23.3C2480,27,2560,33,2640,36.7C2720,40,2800,40,2880,45C2960,50,3040,60,3120,66.7C3200,73,3280,77,3360,75C3440,73,3520,67,3600,55C3680,43,3760,27,3840,25C3920,23,4000,37,4080,38.3C4160,40,4240,30,4320,21.7C4400,13,4480,7,4560,15C4640,23,4720,47,4800,61.7C4880,77,4960,83,5040,71.7C5120,60,5200,30,5280,15C5360,0,5440,0,5520,5C5600,10,5680,20,5720,25L5760,30L5760,100L5720,100C5680,100,5600,100,5520,100C5440,100,5360,100,5280,100C5200,100,5120,100,5040,100C4960,100,4880,100,4800,100C4720,100,4640,100,4560,100C4480,100,4400,100,4320,100C4240,100,4160,100,4080,100C4000,100,3920,100,3840,100C3760,100,3680,100,3600,100C3520,100,3440,100,3360,100C3280,100,3200,100,3120,100C3040,100,2960,100,2880,100C2800,100,2720,100,2640,100C2560,100,2480,100,2400,100C2320,100,2240,100,2160,100C2080,100,2000,100,1920,100C1840,100,1760,100,1680,100C1600,100,1520,100,1440,100C1360,100,1280,100,1200,100C1120,100,1040,100,960,100C880,100,800,100,720,100C640,100,560,100,480,100C400,100,320,100,240,100C160,100,80,100,40,100L0,100Z"/></svg>